<!--?xml version="1.0" encoding="utf-8"?-->
<!-- Generator: Adobe Illustrator 22.1.0, SVG Export Plug-In . SVG Version: 6.00 Build 0)  -->
<svg version="1.1" id="_x31_" xmlns="http://www.w3.org/2000/svg" xmlns:xlink="http://www.w3.org/1999/xlink" x="0px" y="0px" viewBox="0 0 512 512" style="enable-background:new 0 0 512 512;" xml:space="preserve">
<style type="text/css">
	.st0{fill:#231815;}
</style>
<g>
	<path class="st0" d="M293.083,72.129c-2.514-3.77-3.142-11.311-3.142-16.967c0-5.656-8.169-6.912-15.082-5.656
		c-6.912,1.257-18.224,1.257-23.251,1.257c-5.027,0-16.967-0.628-24.508-2.514c-7.541-1.885-17.595,2.514-25.764,2.514
		c-8.169,0-10.054,0-18.224-1.257s-7.541-0.628-16.966,0c-9.426,0.628-11.312,0-18.224,2.514c-6.912,2.514-5.655,22.622-3.77,30.163
		c1.885,7.541,0.628,16.967,1.885,21.994c1.257,5.027,3.77,11.939,3.77,17.595c0,5.655,3.77,3.142,11.94,1.885
		c8.169-1.257,5.655-2.514,12.568-3.77s7.541,0.628,15.71-1.885s6.912-5.027,11.312-6.284c4.398-1.257,16.338-4.399,20.737-5.027
		c4.399-0.628,10.683,0,13.825,3.77s-2.514,20.737-3.77,30.163c0,0-0.628,3.142-5.655,2.514s-20.109,3.77-23.879,3.142
		c-3.771-0.628-4.399-0.628-8.169-1.257s-6.912,1.885-11.939,0c-5.027-1.885-9.426,0-13.196,2.514
		c-3.77,2.514-5.027,6.284,1.257,14.453c6.284,8.169,4.399,12.568,5.655,19.48c1.257,6.912,7.541,0.628,15.082-1.257
		c7.541-1.885,46.502-1.885,52.785-1.257c6.285,0.628,4.399-2.514,10.054-5.027c5.655-2.514,5.027,0.628,10.683-3.142
		c5.655-3.77,8.797-26.393,11.939-39.589c3.142-13.196,15.082-51.529,15.082-51.529S295.597,75.899,293.083,72.129z" style="stroke: rgb(255, 255, 255); stroke-width: 5px;"></path>
	<path class="st0" d="M303.766,63.96c0,0,5.655,3.142,8.169,1.257c2.514-1.885,4.399-3.77,9.426-6.284
		c5.027-2.514,2.514-3.77,5.027-9.426c2.514-5.656,13.825-32.048,13.825-37.075c0-5.027-22.623,0-28.278,1.257
		s-3.77,4.399-5.655,9.426c-1.885,5.027-5.027,21.994-7.541,28.906C296.225,58.933,303.137,57.047,303.766,63.96z" style="stroke: rgb(255, 255, 255); stroke-width: 5px;"></path>
	<path class="st0" d="M369.119,28.141c1.885-5.656-9.426-2.514-9.426-2.514s-7.541-3.142-10.683-1.885
		c-3.142,1.257-18.852,35.19-16.338,40.217c0,0,1.885,4.399,3.77,5.027s5.027-1.257,8.169-6.284
		c3.142-5.027,13.196-17.595,18.224-23.251C367.863,33.797,367.234,33.797,369.119,28.141z" style="stroke: rgb(255, 255, 255); stroke-width: 5px;"></path>
	<path class="st0" d="M284.125,333.367l6.406-1.605c0,0,1.8-3.004,2.837-9.732c1.037-6.728,18.388-55.67,19.628-58.193
		c1.24-2.524-0.405-8.409-0.405-8.409s0.918-5.166-1.045-6.887c-1.963-1.721-5.647-1.478-7.05-3.68
		c-1.402-2.202-6.167-1.518-11.933-1.434c-5.766,0.083-24.586-0.306-24.586-0.306l-22.583,0.894l-13.134,0.568
		c0,0-6.688-1.558-9.811-1.796c-3.124-0.238-5.766,0.083-5.766,0.083s-4.844,1.725-9.529,1.367
		c-4.685-0.358-5.885,1.645-9.048,1.927c-3.163,0.282-5.881,8.453-5.317,14.779s7.137,16.253,8.743,22.659
		c1.605,6.406,2.324,3.843,4.61,8.206c2.285,4.363,9.609-2.408,14.775-1.49c5.166,0.918,6.966-2.086,15.014-4.613
		c0,0,12.613-0.608,16.778-0.29c4.164,0.318,10.05-1.327,12.732-2.17c2.682-0.843,5.925-2.166,9.49-0.846
		c3.564,1.319-2.19,21.824-4.709,27.392c-2.519,5.567-4.284,1.244-6.366,1.085c-2.082-0.159-14.735,0.97-14.735,0.97l-31.07-0.151
		c0,0-9.45,0.326-12.693,1.649c-3.243,1.323,0.926,8.448,2.69,12.772c1.764,4.324,1.323,3.243,3.568,8.126
		c2.245,4.884,1.844,3.283,5.969,4.121c4.125,0.838,8.489-1.446,8.489-1.446s33.43-3.334,37.674-4.057
		C267.987,332.135,284.125,333.367,284.125,333.367z" style="stroke: rgb(255, 255, 255); stroke-width: 5px;"></path>
	<path class="st0" d="M331.61,253.215c3.362-2.885,11.962-19.508,11.962-19.508s1.88-4.045,1.597-7.209
		c-0.282-3.163-3.564-1.319-8.73-2.238c-5.166-0.918-6.807,0.004-7.968,1.486c-1.16,1.482-7.837,20.346-7.837,20.346
		s-1.919,4.566,1.605,6.406C322.239,252.5,328.248,256.1,331.61,253.215z" style="stroke: rgb(255, 255, 255); stroke-width: 5px;"></path>
	<path class="st0" d="M354.821,230.378c-3.803,1.804-10.881,19.067-12.76,23.112c0,0,7.372,6.323,10.693,3.958
		c3.323-2.365,9.963-13.901,12.884-17.866s3.08-6.048,3.08-6.048l-2.885-3.362C365.833,230.171,358.624,228.574,354.821,230.378z" style="stroke: rgb(255, 255, 255); stroke-width: 5px;"></path>
	<path class="st0" d="M283.943,426.236c-2.3-3.858-1.522-6.936-2.911-9.147c-1.389-2.211-5.074-1.991-5.074-1.991
		s-6.721-1.08-12.053,0.05c-5.332,1.13-52.939,0.335-52.939,0.335s-6.764-0.56-11.404-1.467c-4.64-0.908-3.643-0.301-8.583,2.433
		c-4.941,2.734-6.979,2.042-10.144,2.304c-3.165,0.262-7.712,10.887-4.977,15.828s-1.86,19.676,5.954,23.019
		c3.036,1.299,7.977-1.435,10.664-2.261c2.688-0.825,2.211-1.389,5.332-1.13c3.122,0.258,3.556,1.342,5.117,1.471
		c1.561,0.129,4.898-2.214,4.898-2.214l4.378-2.257c0,0,6.85-0.481,12.574-0.007c5.723,0.474,14.178-0.399,14.178-0.399
		s4.205-0.176,7.456-1.479c3.251-1.303,3.728-0.739,4.511,2.469c0.782,3.208-9.01,13.923-9.007,20.21
		c0.004,6.287-4.593,4.859-4.593,4.859s-2.731,1.346-7.934,0.915c-5.203-0.431-15.132-0.728-16.693-0.857
		c-1.561-0.129-5.375,1.651-7.371,0.438c-1.995-1.213,0.215-2.601-1.909-2.254c-2.125,0.348-4.249,0.696-8.411,0.352
		c-4.163-0.344-5.16-0.951-8.325-0.689c-3.165,0.262-1.772,8.759-0.513,12.531c1.26,3.772,4.123,7.152,4.862,10.88
		c0.739,3.728,9.8,1.858,16.087,1.855c6.287-0.004,26.231-0.449,29.83,0.372c3.599,0.822,18.168,2.027,23.5,0.897
		c5.332-1.13,0,0,3.251-1.303c3.251-1.303,1.776-2.472,3.201-13.356c1.424-10.884,15.928-46.879,17.876-51.432
		C286.721,430.657,286.243,430.093,283.943,426.236z" style="stroke: rgb(255, 255, 255); stroke-width: 5px;"></path>
	<path class="st0" d="M306.804,416.384c3.208-0.782,1.213-1.995,5.242-6.377c4.03-4.382,3.944-3.341,5.763-6.334
		c1.819-2.993,6.541-9.412,3.548-11.232c-3.154-1.918-3.904-3.466-3.904-3.466l-7.112-2.684l-4.378,2.257
		c0,0-5.152,11.623-7.058,15.656c-1.905,4.033,1.251,6.525,1.87,9.06C301.167,414.87,303.596,417.166,306.804,416.384z" style="stroke: rgb(255, 255, 255); stroke-width: 5px;"></path>
	<path class="st0" d="M318.779,429.948c2.688-0.825,4.507-3.818,9.143-9.197c4.636-5.379,6.283-6.291,9.749-10.195
		s1.733-1.952,0.865-4.119c-0.869-2.167-1.475-1.17-3.991-2.426c-2.515-1.256-1.432-1.69-3.341-3.944
		c-1.909-2.254-3.728,0.739-6.545,3.126c-2.817,2.386-10.567,20.081-10.567,20.081s0.782,3.208,2.171,5.419
		C317.652,430.902,316.091,430.773,318.779,429.948z" style="stroke: rgb(255, 255, 255); stroke-width: 5px;"></path>
</g>
</svg>
