<!--?xml version="1.0" encoding="utf-8"?-->
<!-- Generator: Adobe Illustrator 22.1.0, SVG Export Plug-In . SVG Version: 6.00 Build 0)  -->
<svg version="1.1" id="_x32_" xmlns="http://www.w3.org/2000/svg" xmlns:xlink="http://www.w3.org/1999/xlink" x="0px" y="0px" viewBox="0 0 512 512" style="enable-background:new 0 0 512 512;" xml:space="preserve">
<style type="text/css">
	.st0{fill:#231815;}
</style>
<g>
	<path class="st0" d="M135.351,197.294c-2.091-3.136-2.614-9.409-2.614-14.112c0-4.704-6.795-5.75-12.544-4.704
		s-15.158,1.045-19.339,1.045c-4.182,0-14.113-0.523-20.385-2.091c-6.272-1.568-14.635,2.091-21.43,2.091
		c-6.795,0-8.363,0-15.158-1.045s-6.272-0.523-14.112,0c-7.841,0.523-9.409,0-15.158,2.091c-5.75,2.091-4.704,18.817-3.136,25.089
		c1.568,6.272,0.523,14.112,1.568,18.294s3.136,9.931,3.136,14.635c0,4.704,3.136,2.613,9.931,1.568
		c6.795-1.045,4.704-2.091,10.453-3.136c5.75-1.045,6.272,0.523,13.067-1.568c6.795-2.091,5.75-4.182,9.409-5.227
		c3.659-1.045,13.59-3.659,17.248-4.182c3.659-0.523,8.885,0,11.499,3.136c2.613,3.136-2.091,17.249-3.136,25.089
		c0,0-0.523,2.613-4.704,2.091c-4.182-0.523-16.726,3.136-19.862,2.613c-3.136-0.523-3.659-0.523-6.795-1.045
		c-3.136-0.523-5.75,1.568-9.931,0c-4.182-1.568-7.84,0-10.976,2.091c-3.136,2.091-4.182,5.227,1.045,12.022
		c5.227,6.795,3.659,10.454,4.704,16.203c1.045,5.75,6.272,0.523,12.544-1.045c6.272-1.568,38.679-1.568,43.905-1.045
		c5.227,0.523,3.659-2.091,8.363-4.182c4.704-2.091,4.182,0.523,8.885-2.613c4.704-3.136,7.317-21.953,9.931-32.929
		c2.613-10.976,12.544-42.86,12.544-42.86S137.442,200.429,135.351,197.294z" style="stroke: rgb(255, 255, 255); stroke-width: 5px;"></path>
	<path class="st0" d="M144.237,190.499c0,0,4.704,2.614,6.795,1.045c2.091-1.568,3.659-3.136,7.84-5.227
		c4.182-2.091,2.091-3.136,4.182-7.84c2.091-4.704,11.499-26.657,11.499-30.838c0-4.182-18.817,0-23.521,1.045
		s-3.136,3.659-4.704,7.84c-1.568,4.182-4.182,18.294-6.272,24.044S143.714,184.749,144.237,190.499z" style="stroke: rgb(255, 255, 255); stroke-width: 5px;"></path>
	<path class="st0" d="M198.596,160.706c1.568-4.704-7.84-2.091-7.84-2.091s-6.272-2.614-8.885-1.568
		c-2.613,1.046-15.68,29.27-13.59,33.452c0,0,1.568,3.659,3.136,4.182s4.182-1.045,6.795-5.227
		c2.613-4.182,10.976-14.635,15.158-19.339C197.55,165.409,197.028,165.409,198.596,160.706z" style="stroke: rgb(255, 255, 255); stroke-width: 5px;"></path>
	<path class="st0" d="M256.667,331.01l5.328-1.335c0,0,1.497-2.499,2.36-8.095c0.863-5.596,15.294-46.304,16.326-48.403
		c1.031-2.099-0.337-6.994-0.337-6.994s0.764-4.297-0.869-5.728c-1.633-1.431-4.697-1.23-5.864-3.061
		c-1.167-1.831-5.13-1.263-9.926-1.193c-4.796,0.069-20.45-0.255-20.45-0.255l-18.784,0.743l-10.924,0.473
		c0,0-5.563-1.296-8.161-1.494c-2.598-0.198-4.796,0.069-4.796,0.069s-4.029,1.434-7.927,1.137
		c-3.897-0.298-4.895,1.368-7.526,1.603c-2.631,0.235-4.892,7.03-4.423,12.293c0.469,5.262,5.936,13.519,7.272,18.847
		c1.335,5.328,1.934,3.196,3.834,6.826c1.901,3.629,7.993-2.003,12.289-1.239c4.297,0.763,5.795-1.735,12.487-3.838
		c0,0,10.492-0.505,13.955-0.241c3.464,0.265,8.36-1.104,10.59-1.805c2.231-0.701,4.928-1.801,7.893-0.704
		c2.965,1.097-1.822,18.153-3.917,22.784c-2.096,4.631-3.563,1.035-5.295,0.902c-1.732-0.132-12.256,0.806-12.256,0.806
		l-25.843-0.126c0,0-7.86,0.271-10.557,1.372c-2.697,1.101,0.77,7.027,2.238,10.623c1.468,3.596,1.101,2.697,2.968,6.76
		s1.534,2.73,4.964,3.428c3.431,0.698,7.06-1.203,7.06-1.203s27.807-2.773,31.336-3.374
		C243.244,329.985,256.667,331.01,256.667,331.01z" style="stroke: rgb(255, 255, 255); stroke-width: 5px;"></path>
	<path class="st0" d="M296.164,264.341c2.796-2.4,9.949-16.226,9.949-16.226s1.563-3.365,1.329-5.996
		c-0.235-2.631-2.965-1.097-7.262-1.861c-4.297-0.763-5.662,0.003-6.627,1.236c-0.965,1.233-6.518,16.923-6.518,16.923
		s-1.596,3.798,1.335,5.328C288.37,263.746,293.368,266.741,296.164,264.341z" style="stroke: rgb(255, 255, 255); stroke-width: 5px;"></path>
	<path class="st0" d="M315.47,245.346c-3.163,1.5-9.05,15.859-10.614,19.224c0,0,6.131,5.259,8.894,3.292
		c2.764-1.967,8.287-11.562,10.716-14.861c2.429-3.298,2.562-5.031,2.562-5.031l-2.399-2.796
		C324.63,245.174,318.634,243.845,315.47,245.346z" style="stroke: rgb(255, 255, 255); stroke-width: 5px;"></path>
	<path class="st0" d="M455.346,303.363c-1.913-3.208-1.266-5.769-2.421-7.608c-1.155-1.839-4.22-1.656-4.22-1.656
		s-5.59-0.898-10.026,0.042c-4.435,0.94-44.033,0.279-44.033,0.279s-5.626-0.465-9.486-1.22c-3.859-0.755-3.03-0.251-7.139,2.024
		c-4.11,2.274-5.805,1.698-8.438,1.916c-2.633,0.218-6.414,9.056-4.14,13.166s-1.547,16.366,4.952,19.147
		c2.525,1.081,6.635-1.194,8.87-1.88c2.236-0.687,1.839-1.155,4.435-0.94c2.597,0.215,2.958,1.116,4.256,1.223
		c1.298,0.108,4.074-1.842,4.074-1.842l3.641-1.878c0,0,5.698-0.4,10.459-0.006c4.76,0.394,11.793-0.332,11.793-0.332
		s3.498-0.146,6.202-1.23c2.704-1.083,3.101-0.615,3.752,2.053c0.651,2.668-7.494,11.581-7.491,16.81
		c0.003,5.229-3.82,4.042-3.82,4.042s-2.271,1.119-6.599,0.761c-4.328-0.358-12.587-0.606-13.885-0.713
		c-1.298-0.107-4.471,1.373-6.131,0.365c-1.659-1.009,0.179-2.164-1.588-1.874c-1.767,0.29-3.534,0.579-6.996,0.293
		c-3.462-0.286-4.292-0.791-6.925-0.573c-2.633,0.218-1.474,7.286-0.426,10.423c1.048,3.137,3.43,5.949,4.044,9.05
		c0.615,3.101,8.151,1.546,13.38,1.543c5.229-0.003,21.818-0.374,24.812,0.31c2.994,0.684,15.112,1.686,19.547,0.746
		c4.435-0.94,0,0,2.704-1.084c2.704-1.083,1.477-2.056,2.662-11.109c1.185-9.053,13.248-38.992,14.868-42.78
		C457.656,307.04,457.259,306.572,455.346,303.363z" style="stroke: rgb(255, 255, 255); stroke-width: 5px;"></path>
	<path class="st0" d="M474.362,295.168c2.668-0.651,1.009-1.66,4.361-5.304c3.352-3.645,3.28-2.779,4.793-5.268
		c1.513-2.49,5.441-7.829,2.952-9.342c-2.623-1.595-3.247-2.883-3.247-2.883l-5.916-2.232l-3.641,1.878c0,0-4.286,9.667-5.87,13.022
		c-1.585,3.355,1.041,5.427,1.555,7.536C469.673,293.909,471.693,295.819,474.362,295.168z" style="stroke: rgb(255, 255, 255); stroke-width: 5px;"></path>
	<path class="st0" d="M484.322,306.45c2.236-0.686,3.749-3.176,7.605-7.65c3.856-4.474,5.226-5.232,8.109-8.48
		c2.883-3.247,1.441-1.624,0.719-3.426c-0.723-1.803-1.227-0.973-3.319-2.018c-2.092-1.044-1.191-1.406-2.779-3.28
		c-1.588-1.874-3.101,0.615-5.444,2.6s-8.79,16.703-8.79,16.703s0.651,2.669,1.806,4.507
		C483.384,307.244,482.086,307.137,484.322,306.45z" style="stroke: rgb(255, 255, 255); stroke-width: 5px;"></path>
</g>
</svg>
